<svg width="780" height="524" viewBox="0 0 780 524" fill="none" xmlns="http://www.w3.org/2000/svg">
<rect x="5" y="5" width="770" height="514" rx="31" stroke="url(#paint0_linear_51_97)" stroke-width="10"/>
<path d="M773 488C773 505.121 759.121 519 742 519L415.5 519C399.208 519 386 505.792 386 489.5C386 473.208 399.208 460 415.5 460L773 460L773 488Z" fill="#0045CE"/>
<path d="M453.667 496H450.579C449.203 496 447.917 495.898 446.721 495.695C445.533 495.483 444.487 495.133 443.584 494.645C442.689 494.149 441.989 493.481 441.484 492.643C440.988 491.797 440.74 490.735 440.74 489.457C440.74 488.684 440.825 487.935 440.996 487.211C441.167 486.487 441.379 485.819 441.631 485.209L444.768 486.393C444.63 486.784 444.483 487.239 444.329 487.76C444.174 488.281 444.097 488.782 444.097 489.262C444.097 489.88 444.276 490.385 444.634 490.775C444.992 491.158 445.476 491.455 446.086 491.667C446.697 491.878 447.389 492.025 448.162 492.106C448.935 492.179 449.74 492.216 450.579 492.216H453.655C454.485 492.216 455.181 492.183 455.742 492.118C456.312 492.045 456.739 491.919 457.024 491.74C457.317 491.553 457.463 491.288 457.463 490.946C457.463 490.775 457.329 490.568 457.061 490.324C456.8 490.08 456.454 489.815 456.023 489.53C455.6 489.237 455.14 488.944 454.644 488.651C454.147 488.35 453.663 488.057 453.191 487.772C452.727 487.488 452.324 487.223 451.982 486.979C451.632 486.727 451.364 486.389 451.177 485.966C450.99 485.535 450.896 485.095 450.896 484.647C450.896 484.167 451.006 483.716 451.226 483.292C451.445 482.869 451.783 482.568 452.239 482.389L461.785 478.495V482.243L455.4 484.831C456.068 485.221 456.682 485.6 457.244 485.966C457.805 486.324 458.306 486.69 458.745 487.064C459.185 487.431 459.559 487.813 459.868 488.212C460.177 488.611 460.409 489.038 460.564 489.494C460.727 489.949 460.808 490.45 460.808 490.995C460.808 492.33 460.503 493.359 459.893 494.083C459.282 494.808 458.44 495.308 457.366 495.585C456.292 495.862 455.059 496 453.667 496ZM470.024 490.568C470.024 490.364 469.976 490.1 469.878 489.774C469.788 489.441 469.699 489.172 469.609 488.969L467.156 483.549L470.244 482.035L473.333 489.14C473.552 489.636 473.748 490.12 473.918 490.592C474.097 491.064 474.309 491.455 474.553 491.764C474.797 492.065 475.119 492.216 475.518 492.216H476.018V496H475.518C474.907 496 474.374 495.923 473.918 495.768C473.471 495.605 473.076 495.39 472.734 495.121C472.393 494.844 472.083 494.535 471.807 494.193C471.392 494.568 470.928 494.889 470.415 495.158C469.902 495.426 469.325 495.634 468.682 495.78C468.047 495.919 467.331 495.988 466.533 495.988C465.793 495.988 465.166 495.963 464.653 495.915C464.149 495.866 463.624 495.776 463.079 495.646V491.862C463.583 491.984 464.128 492.082 464.714 492.155C465.308 492.22 465.854 492.252 466.35 492.252C466.879 492.252 467.424 492.208 467.986 492.118C468.556 492.029 469.036 491.862 469.426 491.618C469.825 491.374 470.024 491.024 470.024 490.568ZM481.108 475.663L483.391 477.946L481.108 480.216L478.838 477.946L481.108 475.663ZM481.414 487.956C481.715 487.956 482.016 487.943 482.317 487.919C482.626 487.886 482.923 487.842 483.208 487.785C483.159 487.524 483.086 487.243 482.988 486.942C482.899 486.633 482.777 486.344 482.622 486.076C482.476 485.807 482.301 485.587 482.097 485.417C481.902 485.246 481.674 485.16 481.414 485.16C481.112 485.16 480.848 485.258 480.62 485.453C480.4 485.64 480.229 485.88 480.107 486.173C479.993 486.458 479.937 486.751 479.937 487.052C479.937 487.459 480.083 487.711 480.376 487.809C480.677 487.907 481.023 487.956 481.414 487.956ZM480.181 492.216C480.832 492.216 481.385 492.187 481.841 492.13C482.297 492.073 482.646 491.959 482.891 491.789C483.143 491.61 483.273 491.341 483.281 490.983C483.013 491.024 482.724 491.056 482.415 491.081C482.105 491.105 481.804 491.117 481.511 491.117C480.063 491.117 478.903 490.816 478.032 490.214C477.17 489.604 476.738 488.603 476.738 487.211C476.738 486.535 476.848 485.864 477.068 485.197C477.288 484.529 477.605 483.919 478.02 483.366C478.435 482.804 478.931 482.357 479.509 482.023C480.087 481.689 480.73 481.522 481.438 481.522C482.398 481.522 483.208 481.758 483.867 482.23C484.526 482.702 485.059 483.329 485.466 484.11C485.873 484.892 486.166 485.762 486.345 486.723C486.532 487.683 486.626 488.651 486.626 489.628C486.626 490.906 486.492 491.959 486.223 492.79C485.963 493.62 485.56 494.271 485.015 494.743C484.478 495.207 483.794 495.532 482.964 495.719C482.142 495.906 481.165 496 480.034 496H475.566V492.216H480.181ZM502.471 502.274C500.721 502.274 499.268 501.937 498.113 501.261C496.965 500.586 496.111 499.662 495.549 498.49C494.988 497.326 494.707 496 494.707 494.511C494.707 493.583 494.797 492.643 494.976 491.691C495.163 490.739 495.464 489.734 495.879 488.676L499.041 489.884C498.731 490.763 498.487 491.561 498.308 492.277C498.137 492.993 498.052 493.677 498.052 494.328C498.052 495.093 498.186 495.792 498.455 496.427C498.723 497.07 499.179 497.583 499.822 497.965C500.465 498.348 501.348 498.539 502.471 498.539C503.781 498.539 504.819 498.405 505.583 498.136C506.348 497.876 506.894 497.583 507.219 497.257C507.553 496.94 507.72 496.704 507.72 496.549C507.72 496.289 507.585 496.13 507.317 496.073C507.056 496.024 506.646 496 506.084 496H504.143C503.769 496 503.537 495.915 503.447 495.744C503.358 495.565 503.268 495.325 503.179 495.023L502.617 492.997C502.536 492.72 502.515 492.521 502.556 492.399C502.597 492.277 502.768 492.216 503.069 492.216H510.527V496H510.759C510.792 496.146 510.812 496.248 510.82 496.305C510.828 496.37 510.833 496.452 510.833 496.549C510.833 497.339 510.641 498.079 510.259 498.771C509.876 499.463 509.323 500.069 508.599 500.59C507.882 501.119 507.008 501.53 505.974 501.823C504.941 502.124 503.773 502.274 502.471 502.274ZM514.897 489.433C514.897 489.734 514.991 490.019 515.178 490.287C515.374 490.548 515.614 490.775 515.898 490.971C516.183 491.166 516.464 491.304 516.741 491.386C516.912 491.361 517.135 491.272 517.412 491.117C517.689 490.963 517.937 490.763 518.157 490.519C518.385 490.267 518.499 489.998 518.499 489.713C518.499 489.412 518.421 489.123 518.267 488.847C518.112 488.562 517.904 488.33 517.644 488.151C517.384 487.964 517.091 487.87 516.765 487.87C516.277 487.87 515.841 488.029 515.459 488.346C515.085 488.664 514.897 489.026 514.897 489.433ZM515.911 485.746L517.498 482.597C519.028 483.313 520.387 483.964 521.575 484.55C522.763 485.136 523.768 485.722 524.59 486.308C525.412 486.885 526.034 487.52 526.458 488.212C526.881 488.904 527.092 489.717 527.092 490.653C527.092 492.346 526.588 493.64 525.579 494.535C524.569 495.43 523.231 495.878 521.562 495.878C520.993 495.878 520.399 495.829 519.78 495.731C519.17 495.626 518.584 495.5 518.022 495.353C517.461 495.198 516.965 495.056 516.533 494.926C515.793 495.178 514.954 495.422 514.019 495.658C513.083 495.886 512.167 496 511.272 496H510.088V492.216H511.113C511.333 492.216 511.545 492.216 511.748 492.216C511.96 492.208 512.167 492.2 512.371 492.191C512.249 491.988 512.135 491.732 512.029 491.422C511.923 491.105 511.838 490.771 511.772 490.421C511.707 490.071 511.675 489.75 511.675 489.457C511.675 488.773 511.85 488.086 512.2 487.394C512.55 486.702 513.087 486.125 513.811 485.661C514.535 485.197 515.455 484.965 516.57 484.965C517.319 484.965 518.059 485.144 518.792 485.502C519.524 485.86 520.13 486.356 520.61 486.991C521.09 487.618 521.331 488.35 521.331 489.188C521.331 489.595 521.29 489.982 521.208 490.348C521.127 490.714 521.013 491.056 520.867 491.374C520.728 491.691 520.566 491.98 520.378 492.24C520.761 492.313 521.123 492.366 521.465 492.399C521.815 492.423 522.051 492.436 522.173 492.436C522.555 492.436 522.934 492.326 523.308 492.106C523.691 491.878 523.882 491.431 523.882 490.763C523.882 490.649 523.849 490.515 523.784 490.36C523.727 490.198 523.573 489.998 523.32 489.762C523.068 489.518 522.661 489.221 522.1 488.871C521.538 488.513 520.757 488.078 519.756 487.565C518.755 487.052 517.473 486.446 515.911 485.746ZM529.656 478.703H533.232V489.884C533.232 490.698 533.334 491.292 533.538 491.667C533.749 492.033 534.246 492.216 535.027 492.216H535.32V496H535.027C533.155 496 531.792 495.52 530.938 494.56C530.083 493.591 529.656 492.151 529.656 490.238V478.703ZM535.723 481.413V479.459L545.769 475.37V477.323L535.723 481.413ZM539.556 484.831C540.223 485.221 540.805 485.579 541.301 485.905C541.806 486.222 542.245 486.531 542.62 486.833C542.994 487.125 543.315 487.427 543.584 487.736C543.861 488.045 544.101 488.375 544.304 488.725C544.516 489.075 544.711 489.469 544.89 489.909C545.126 490.478 545.346 490.934 545.549 491.276C545.761 491.61 546.034 491.85 546.367 491.996C546.701 492.143 547.165 492.216 547.759 492.216H548.101V496H547.759C546.766 496 545.932 495.862 545.256 495.585C544.581 495.308 544.015 494.84 543.56 494.181C543.12 494.653 542.648 495.023 542.144 495.292C541.639 495.552 541.041 495.736 540.349 495.841C539.666 495.947 538.823 496 537.822 496H534.868V492.216H537.81C538.64 492.216 539.336 492.183 539.897 492.118C540.467 492.045 540.894 491.919 541.179 491.74C541.472 491.553 541.619 491.288 541.619 490.946C541.619 490.775 541.484 490.568 541.216 490.324C540.955 490.08 540.61 489.815 540.178 489.53C539.755 489.237 539.295 488.944 538.799 488.651C538.302 488.35 537.818 488.057 537.346 487.772C536.882 487.488 536.479 487.223 536.138 486.979C535.788 486.719 535.519 486.373 535.332 485.941C535.145 485.502 535.051 485.05 535.051 484.586C535.051 484.09 535.161 483.646 535.381 483.256C535.601 482.857 535.938 482.568 536.394 482.389L545.94 478.495V482.243L539.556 484.831ZM558.733 478.178L560.759 480.204L558.733 482.23L556.707 480.204L558.733 478.178ZM560.881 481.303L562.908 483.329L560.881 485.355L558.855 483.329L560.881 481.303ZM556.597 481.303L558.623 483.329L556.597 485.355L554.57 483.329L556.597 481.303ZM555.999 496C555.193 496 554.505 495.866 553.936 495.597C553.374 495.32 552.91 494.962 552.544 494.523C552.08 494.971 551.519 495.329 550.859 495.597C550.2 495.866 549.411 496 548.491 496H547.637V492.216H548.516C549.378 492.216 550.009 492.082 550.408 491.813C550.815 491.536 551.018 490.995 551.018 490.189C551.018 490.067 551.006 489.852 550.981 489.542C550.965 489.225 550.945 488.879 550.92 488.505C550.896 488.131 550.872 487.801 550.847 487.516L554.106 487.113L554.375 490.495C554.399 490.836 554.473 491.138 554.595 491.398C554.725 491.658 554.908 491.862 555.144 492.008C555.38 492.147 555.673 492.216 556.023 492.216C556.666 492.216 557.122 492.049 557.39 491.715C557.667 491.382 557.805 490.873 557.805 490.189C557.805 490.076 557.797 489.864 557.781 489.555C557.764 489.237 557.74 488.891 557.708 488.517C557.683 488.135 557.659 487.801 557.634 487.516L560.894 487.113L561.162 490.495C561.187 490.804 561.248 491.093 561.345 491.361C561.443 491.622 561.593 491.829 561.797 491.984C562 492.139 562.261 492.216 562.578 492.216C562.896 492.216 563.14 492.13 563.311 491.959C563.49 491.789 563.612 491.565 563.677 491.288C563.75 491.003 563.787 490.698 563.787 490.373C563.787 489.778 563.705 489.091 563.542 488.31C563.38 487.52 563.225 486.824 563.079 486.222L566.46 485.343C566.655 486.108 566.81 486.881 566.924 487.663C567.038 488.444 567.095 489.225 567.095 490.006C567.095 491.081 566.956 492.073 566.68 492.985C566.403 493.888 565.939 494.617 565.288 495.17C564.637 495.715 563.75 495.992 562.627 496C561.895 496 561.268 495.854 560.747 495.561C560.226 495.259 559.791 494.905 559.441 494.499C559.034 494.897 558.538 495.247 557.952 495.548C557.374 495.849 556.723 496 555.999 496ZM566.606 502.677L565.264 499.162C566.411 498.909 567.416 498.592 568.279 498.209C569.15 497.827 569.825 497.294 570.305 496.61C570.785 495.935 571.025 495.032 571.025 493.9C571.025 493.152 570.899 492.301 570.647 491.349C570.403 490.389 570.146 489.51 569.878 488.712L573.406 487.565C573.731 488.476 573.979 489.465 574.15 490.531C574.321 491.589 574.407 492.606 574.407 493.583C574.407 495.357 574.077 496.863 573.418 498.1C572.759 499.345 571.843 500.342 570.671 501.09C569.5 501.839 568.145 502.368 566.606 502.677ZM581.023 485.429C581.853 485.429 582.569 485.624 583.171 486.015C583.782 486.405 584.294 486.93 584.709 487.589C585.125 488.24 585.446 488.969 585.674 489.774C585.91 490.58 586.064 491.394 586.138 492.216H586.931V496H585.894C585.56 497.294 585.023 498.38 584.282 499.259C583.542 500.138 582.602 500.85 581.462 501.396C580.331 501.949 578.997 502.376 577.458 502.677L576.152 499.162C577.137 498.966 578.065 498.714 578.936 498.405C579.814 498.104 580.563 497.75 581.182 497.343C581.8 496.936 582.211 496.488 582.415 496H581.426C579.766 496 578.492 495.65 577.605 494.95C576.726 494.25 576.287 493.103 576.287 491.508C576.287 490.906 576.38 490.255 576.567 489.555C576.755 488.855 577.039 488.192 577.422 487.565C577.812 486.938 578.305 486.426 578.899 486.027C579.501 485.628 580.209 485.429 581.023 485.429ZM581.426 492.216H582.878C582.846 491.955 582.789 491.654 582.708 491.312C582.626 490.963 582.512 490.625 582.366 490.299C582.227 489.974 582.044 489.701 581.816 489.481C581.597 489.262 581.324 489.152 580.999 489.152C580.649 489.152 580.368 489.282 580.156 489.542C579.945 489.803 579.794 490.108 579.705 490.458C579.615 490.8 579.57 491.101 579.57 491.361C579.57 491.768 579.749 492.012 580.107 492.094C580.465 492.175 580.905 492.216 581.426 492.216ZM592.021 475.663L594.304 477.946L592.021 480.216L589.751 477.946L592.021 475.663ZM592.327 487.956C592.628 487.956 592.929 487.943 593.23 487.919C593.539 487.886 593.836 487.842 594.121 487.785C594.072 487.524 593.999 487.243 593.901 486.942C593.812 486.633 593.69 486.344 593.535 486.076C593.389 485.807 593.214 485.587 593.01 485.417C592.815 485.246 592.587 485.16 592.327 485.16C592.026 485.16 591.761 485.258 591.533 485.453C591.313 485.64 591.143 485.88 591.021 486.173C590.907 486.458 590.85 486.751 590.85 487.052C590.85 487.459 590.996 487.711 591.289 487.809C591.59 487.907 591.936 487.956 592.327 487.956ZM591.094 492.216C591.745 492.216 592.298 492.187 592.754 492.13C593.21 492.073 593.56 491.959 593.804 491.789C594.056 491.61 594.186 491.341 594.194 490.983C593.926 491.024 593.637 491.056 593.328 491.081C593.018 491.105 592.717 491.117 592.424 491.117C590.976 491.117 589.816 490.816 588.945 490.214C588.083 489.604 587.651 488.603 587.651 487.211C587.651 486.535 587.761 485.864 587.981 485.197C588.201 484.529 588.518 483.919 588.933 483.366C589.348 482.804 589.845 482.357 590.422 482.023C591 481.689 591.643 481.522 592.351 481.522C593.311 481.522 594.121 481.758 594.78 482.23C595.439 482.702 595.972 483.329 596.379 484.11C596.786 484.892 597.079 485.762 597.258 486.723C597.445 487.683 597.539 488.651 597.539 489.628C597.539 490.906 597.405 491.959 597.136 492.79C596.876 493.62 596.473 494.271 595.928 494.743C595.391 495.207 594.707 495.532 593.877 495.719C593.055 495.906 592.078 496 590.947 496H586.479V492.216H591.094ZM618.303 482.353L620.464 484.501L618.303 486.674L616.143 484.501L618.303 482.353ZM614.153 482.353L616.338 484.501L614.153 486.674L612.017 484.501L614.153 482.353ZM622.82 487.052L626.079 486.637L626.348 490.263C626.388 490.849 626.543 491.321 626.812 491.679C627.08 492.037 627.536 492.216 628.179 492.216H628.447V496H628.179C627.243 496 626.462 495.829 625.835 495.487C625.208 495.146 624.692 494.69 624.285 494.12C623.788 494.56 623.223 494.918 622.588 495.194C621.953 495.471 621.217 495.674 620.378 495.805C619.548 495.935 618.576 496 617.461 496H615.422C614.039 496 612.749 495.898 611.553 495.695C610.365 495.483 609.323 495.133 608.428 494.645C607.533 494.149 606.833 493.481 606.328 492.643C605.832 491.797 605.583 490.735 605.583 489.457C605.583 488.684 605.669 487.935 605.84 487.211C606.011 486.487 606.222 485.819 606.475 485.209L609.612 486.393C609.473 486.784 609.327 487.239 609.172 487.76C609.018 488.281 608.94 488.782 608.94 489.262C608.94 489.88 609.119 490.385 609.478 490.775C609.836 491.158 610.32 491.455 610.93 491.667C611.541 491.878 612.232 492.025 613.005 492.106C613.778 492.179 614.584 492.216 615.422 492.216H617.461C618.617 492.216 619.601 492.151 620.415 492.021C621.237 491.89 621.864 491.654 622.295 491.312C622.734 490.963 622.954 490.474 622.954 489.848C622.954 489.416 622.938 488.944 622.905 488.432C622.881 487.911 622.852 487.451 622.82 487.052ZM627.959 492.216H628.936V496H627.959V492.216ZM632.415 497.489L634.575 499.638L632.415 501.811L630.254 499.638L632.415 497.489ZM628.264 497.489L630.449 499.638L628.264 501.811L626.128 499.638L628.264 497.489ZM630.01 496H628.655V492.216H629.985C630.628 492.216 631.137 492.114 631.511 491.911C631.886 491.707 632.073 491.231 632.073 490.482C632.073 490.035 632.024 489.445 631.926 488.712C631.829 487.98 631.654 487.121 631.401 486.137L634.771 485.233C634.982 486.104 635.141 486.93 635.247 487.711C635.361 488.493 635.417 489.258 635.417 490.006C635.417 491.227 635.238 492.285 634.88 493.18C634.53 494.075 633.961 494.771 633.171 495.268C632.382 495.756 631.328 496 630.01 496ZM637.981 478.703H641.558V489.884C641.558 490.698 641.659 491.292 641.863 491.667C642.074 492.033 642.571 492.216 643.352 492.216H643.645V496H643.352C641.48 496 640.117 495.52 639.263 494.56C638.408 493.591 637.981 492.151 637.981 490.238V478.703ZM651.555 496C650.75 496 650.062 495.866 649.492 495.597C648.931 495.32 648.467 494.962 648.101 494.523C647.637 494.971 647.075 495.329 646.416 495.597C645.757 495.866 644.967 496 644.048 496H643.193V492.216H644.072C644.935 492.216 645.566 492.082 645.964 491.813C646.371 491.536 646.575 490.995 646.575 490.189C646.575 490.067 646.562 489.852 646.538 489.542C646.522 489.225 646.501 488.879 646.477 488.505C646.453 488.131 646.428 487.801 646.404 487.516L649.663 487.113L649.932 490.495C649.956 490.836 650.029 491.138 650.151 491.398C650.282 491.658 650.465 491.862 650.701 492.008C650.937 492.147 651.23 492.216 651.58 492.216C652.222 492.216 652.678 492.049 652.947 491.715C653.223 491.382 653.362 490.873 653.362 490.189C653.362 490.076 653.354 489.864 653.337 489.555C653.321 489.237 653.297 488.891 653.264 488.517C653.24 488.135 653.215 487.801 653.191 487.516L656.45 487.113L656.719 490.495C656.743 490.804 656.804 491.093 656.902 491.361C657 491.622 657.15 491.829 657.354 491.984C657.557 492.139 657.817 492.216 658.135 492.216C658.452 492.216 658.696 492.13 658.867 491.959C659.046 491.789 659.168 491.565 659.233 491.288C659.307 491.003 659.343 490.698 659.343 490.373C659.343 489.778 659.262 489.091 659.099 488.31C658.936 487.52 658.782 486.824 658.635 486.222L662.017 485.343C662.212 486.108 662.367 486.881 662.48 487.663C662.594 488.444 662.651 489.225 662.651 490.006C662.651 491.081 662.513 492.073 662.236 492.985C661.96 493.888 661.496 494.617 660.845 495.17C660.194 495.715 659.307 495.992 658.184 496C657.451 496 656.825 495.854 656.304 495.561C655.783 495.259 655.347 494.905 654.998 494.499C654.591 494.897 654.094 495.247 653.508 495.548C652.931 495.849 652.279 496 651.555 496ZM677.861 491.068C677.861 490.832 677.747 490.564 677.52 490.263C677.3 489.953 677.027 489.652 676.702 489.359C676.384 489.058 676.079 488.806 675.786 488.603C675.542 488.814 675.282 489.075 675.005 489.384C674.728 489.685 674.492 489.994 674.297 490.312C674.102 490.621 674.004 490.897 674.004 491.142C674.004 491.5 674.179 491.768 674.529 491.947C674.887 492.126 675.351 492.216 675.92 492.216C676.539 492.216 677.015 492.126 677.349 491.947C677.69 491.76 677.861 491.467 677.861 491.068ZM673.198 486.369L672.71 485.941L674.907 483.134C675.623 483.695 676.348 484.269 677.08 484.855C677.812 485.433 678.488 486.043 679.106 486.686C679.725 487.321 680.221 488 680.596 488.725C680.978 489.441 681.169 490.21 681.169 491.032C681.169 492.057 680.942 492.936 680.486 493.668C680.038 494.401 679.42 494.966 678.63 495.365C677.841 495.756 676.942 495.951 675.933 495.951C674.199 495.951 672.889 495.528 672.002 494.682C671.123 493.827 670.684 492.761 670.684 491.483C670.684 490.442 670.932 489.53 671.428 488.749C671.925 487.96 672.515 487.166 673.198 486.369ZM685.32 479.325L687.346 481.352L685.32 483.378L683.293 481.352L685.32 479.325ZM687.468 482.45L689.495 484.477L687.468 486.503L685.442 484.477L687.468 482.45ZM683.184 482.45L685.21 484.477L683.184 486.503L681.157 484.477L683.184 482.45ZM680.791 502.677L679.448 499.162C680.596 498.909 681.601 498.592 682.463 498.209C683.334 497.827 684.01 497.294 684.49 496.61C684.97 495.935 685.21 495.032 685.21 493.9C685.21 493.152 685.084 492.301 684.832 491.349C684.587 490.389 684.331 489.51 684.062 488.712L687.59 487.565C687.916 488.476 688.164 489.465 688.335 490.531C688.506 491.589 688.591 492.606 688.591 493.583C688.591 495.357 688.262 496.863 687.603 498.1C686.943 499.345 686.028 500.342 684.856 501.09C683.684 501.839 682.329 502.368 680.791 502.677ZM700.396 493.168C700.396 495.129 700.033 496.749 699.309 498.026C698.585 499.312 697.563 500.325 696.245 501.066C694.935 501.806 693.401 502.344 691.643 502.677L690.337 499.162C691.419 498.95 692.392 498.69 693.254 498.38C694.125 498.079 694.849 497.721 695.427 497.306C696.005 496.891 696.4 496.427 696.611 495.915C696.424 495.947 696.237 495.976 696.05 496C695.871 496.016 695.704 496.024 695.549 496.024C693.995 496.024 692.758 495.679 691.838 494.987C690.927 494.287 690.471 493.127 690.471 491.508C690.471 490.849 690.569 490.169 690.764 489.469C690.968 488.761 691.265 488.106 691.655 487.504C692.054 486.902 692.55 486.413 693.145 486.039C693.739 485.665 694.426 485.478 695.208 485.478C696.135 485.478 696.925 485.697 697.576 486.137C698.235 486.576 698.772 487.166 699.187 487.907C699.602 488.647 699.907 489.473 700.103 490.385C700.298 491.296 700.396 492.224 700.396 493.168ZM695.476 492.252C695.826 492.252 696.139 492.236 696.416 492.204C696.693 492.163 696.908 492.126 697.063 492.094C697.03 491.858 696.973 491.577 696.892 491.251C696.811 490.918 696.701 490.592 696.562 490.275C696.424 489.949 696.241 489.681 696.013 489.469C695.793 489.258 695.517 489.152 695.183 489.152C694.817 489.152 694.528 489.286 694.316 489.555C694.113 489.823 693.966 490.132 693.877 490.482C693.796 490.824 693.755 491.117 693.755 491.361C693.755 491.768 693.926 492.021 694.268 492.118C694.609 492.208 695.012 492.252 695.476 492.252ZM710.894 496C710.576 496 710.263 495.972 709.954 495.915C709.644 495.849 709.376 495.756 709.148 495.634C708.92 496.911 708.468 498.03 707.793 498.991C707.118 499.951 706.247 500.736 705.181 501.347C704.123 501.965 702.898 502.409 701.506 502.677L700.2 499.162C701.348 498.909 702.353 498.592 703.215 498.209C704.086 497.827 704.762 497.294 705.242 496.61C705.722 495.935 705.962 495.032 705.962 493.9C705.962 493.152 705.836 492.301 705.583 491.349C705.339 490.389 705.083 489.51 704.814 488.712L708.33 487.565L709.05 490.373C709.181 490.869 709.368 491.3 709.612 491.667C709.856 492.033 710.238 492.216 710.759 492.216H711.223V496H710.894ZM710.747 492.216H712.517V496H710.747V492.216ZM713.628 496H712.273V492.216H713.604C714.246 492.216 714.755 492.114 715.129 491.911C715.504 491.707 715.691 491.231 715.691 490.482C715.691 490.035 715.642 489.445 715.544 488.712C715.447 487.98 715.272 487.121 715.02 486.137L718.389 485.233C718.6 486.104 718.759 486.93 718.865 487.711C718.979 488.493 719.036 489.258 719.036 490.006C719.036 491.227 718.857 492.285 718.499 493.18C718.149 494.075 717.579 494.771 716.79 495.268C716 495.756 714.946 496 713.628 496ZM713.909 500.272L715.935 502.299L713.909 504.325L711.882 502.299L713.909 500.272ZM716.057 497.147L718.083 499.174L716.057 501.2L714.031 499.174L716.057 497.147ZM711.772 497.147L713.799 499.174L711.772 501.2L709.746 499.174L711.772 497.147Z" fill="white"/>
<defs>
<linearGradient id="paint0_linear_51_97" x1="157.059" y1="5" x2="250.739" y2="423.667" gradientUnits="userSpaceOnUse">
<stop stop-color="#18DBE7"/>
<stop offset="1" stop-color="#185CE7"/>
</linearGradient>
</defs>
</svg>
